<?xml version="1.0" encoding="UTF-8"?>
<svg id="Capa_2" data-name="Capa 2" xmlns="http://www.w3.org/2000/svg" viewBox="0 0 1063.77 434.48">
  <defs>
    <style>
      .cls-1 {
        fill: #1a1a1a;
      }

      .cls-2 {
        fill: #fa8e36;
      }
    </style>
  </defs>
  <g id="Capa_1-2" data-name="Capa 1">
    <g>
      <path class="cls-1" d="m4.05,422.45c-2.7-2.36-4.05-5.54-4.05-9.54,0-1.18.1-2.27.32-3.29,1.02-5.78,3.54-10.01,7.58-12.71,4.04-2.7,9.1-4.05,15.2-4.05l1.84-8.82h4.82l-2.01,12.83h-2c-5.51,0-10,.87-13.47,2.61-3.47,1.74-5.67,5.12-6.58,10.14-.16.85-.24,1.66-.24,2.4,0,2.84.92,5.07,2.76,6.7s4.34,2.45,7.5,2.45c3.64,0,6.71-.99,9.22-2.97,2.52-1.98,4.09-4.68,4.73-8.1h5.29c-.85,4.82-3.14,8.66-6.85,11.55-3.72,2.89-8.12,4.33-13.19,4.33-4.55,0-8.17-1.17-10.87-3.52Zm28.51-52.69c.64.64.96,1.48.96,2.49,0,1.28-.49,2.4-1.48,3.37s-2.12,1.44-3.41,1.44c-1.02,0-1.84-.3-2.49-.92s-.96-1.43-.96-2.45c0-1.28.49-2.42,1.48-3.41s2.13-1.48,3.41-1.48c1.01,0,1.84.32,2.49.96Z"/>
      <path class="cls-1" d="m89.82,362.63c4.38,3.79,6.58,9.14,6.58,16.03,0,1.87-.22,4.01-.64,6.42-1.02,5.77-3.08,10.76-6.18,14.95-3.1,4.2-7.07,7.41-11.91,9.62-4.84,2.22-10.36,3.33-16.56,3.33h-16.6l9.86-56.06h16.68c8.13,0,14.38,1.9,18.77,5.7Zm-8.98,39.73c4.82-4.14,7.86-9.9,9.15-17.28.37-1.93.56-3.85.56-5.78,0-5.67-1.71-10.05-5.13-13.15-3.42-3.1-8.5-4.65-15.24-4.65h-10.99l-8.26,47.08h10.99c7.8,0,14.11-2.07,18.92-6.22Z"/>
      <path class="cls-1" d="m112.35,411.42c-2.78-1.48-4.93-3.56-6.46-6.26s-2.29-5.87-2.29-9.5c0-4.92,1.12-9.45,3.37-13.6,2.25-4.14,5.38-7.43,9.38-9.87,4.01-2.43,8.47-3.64,13.39-3.64,3.64,0,6.84.73,9.62,2.2,2.78,1.47,4.95,3.56,6.5,6.26,1.55,2.7,2.33,5.87,2.33,9.5,0,4.97-1.15,9.52-3.45,13.63-2.3,4.12-5.44,7.39-9.42,9.82-3.98,2.44-8.43,3.65-13.35,3.65-3.64,0-6.85-.74-9.62-2.2Zm20.49-5.58c3.02-2.03,5.37-4.73,7.06-8.1,1.68-3.37,2.52-7,2.52-10.91,0-4.38-1.27-7.72-3.81-10.02-2.54-2.3-5.76-3.45-9.67-3.45s-7.18,1.02-10.14,3.05c-2.97,2.04-5.28,4.74-6.94,8.1s-2.49,7-2.49,10.91c0,4.33,1.25,7.66,3.77,9.99,2.51,2.33,5.67,3.49,9.46,3.49s7.2-1.02,10.23-3.05Z"/>
      <path class="cls-1" d="m195.07,372.05c2.7,2.43,4.05,5.97,4.05,10.62,0,1.72-.13,3.26-.4,4.65l-4.57,25.67h-5.54l4.41-25.02c.21-1.22.32-2.53.32-3.93,0-3.52-.96-6.2-2.89-8.02-1.92-1.81-4.62-2.72-8.1-2.72-4.22,0-7.83,1.34-10.82,4.01-3,2.67-4.95,6.6-5.86,11.79v-.24l-4.25,24.14h-5.61l7.7-43.78h5.61l-1.36,7.53c1.87-2.67,4.25-4.73,7.14-6.17,2.89-1.45,6.01-2.17,9.38-2.17,4.49,0,8.09,1.21,10.78,3.65Z"/>
      <path class="cls-1" d="m214.28,379.18c2.41-3.39,5.38-6.01,8.9-7.86,3.53-1.84,7.3-2.76,11.31-2.76s7.15.93,9.9,2.8c2.75,1.87,4.61,4.3,5.57,7.3l4.41-25.02h5.61l-10.5,59.35h-5.61l1.76-9.79c-1.92,3.05-4.57,5.55-7.94,7.51-3.37,1.95-7.11,2.92-11.23,2.92-5.29,0-9.53-1.59-12.71-4.77s-4.77-7.47-4.77-12.87c0-1.55.16-3.21.48-4.97.8-4.49,2.41-8.43,4.81-11.83Zm33.84,7.9c0-4.17-1.25-7.49-3.77-9.94-2.51-2.46-5.77-3.7-9.78-3.7-3.1,0-6,.7-8.7,2.09-2.7,1.39-4.99,3.4-6.86,6.05-1.87,2.66-3.13,5.8-3.77,9.43-.27,1.6-.4,2.96-.4,4.09,0,4.23,1.24,7.55,3.73,9.99,2.49,2.43,5.74,3.64,9.74,3.64,2.99,0,5.87-.72,8.62-2.16,2.75-1.45,5.08-3.51,6.98-6.18,1.9-2.67,3.17-5.78,3.81-9.3.26-1.5.4-2.84.4-4.01Z"/>
      <path class="cls-1" d="m300.17,370.68c2.62,1.42,4.61,3.36,5.97,5.82,1.36,2.46,2.04,5.27,2.04,8.42,0,1.44-.1,2.72-.32,3.85-.32,1.61-.64,3.05-.96,4.33h-36.33c-.16,1.02-.24,1.98-.24,2.89,0,4.11,1.25,7.3,3.73,9.54,2.49,2.25,5.65,3.38,9.5,3.38s6.92-.89,9.7-2.65c2.78-1.77,4.81-4.15,6.1-7.14h6.01c-1.82,4.28-4.72,7.77-8.7,10.46s-8.62,4.05-13.91,4.05-9.83-1.56-13.11-4.69c-3.29-3.12-4.93-7.39-4.93-12.79,0-1.61.16-3.29.48-5.05.8-4.55,2.42-8.53,4.85-11.95,2.43-3.43,5.44-6.05,9.02-7.86,3.58-1.82,7.46-2.72,11.63-2.72,3.69,0,6.84.7,9.46,2.12Zm2.33,14.48c0-3.8-1.2-6.71-3.61-8.75-2.4-2.03-5.48-3.05-9.22-3.05-2.72,0-5.34.59-7.86,1.76-2.52,1.18-4.71,2.94-6.58,5.29-1.87,2.36-3.15,5.19-3.85,8.5h30.72c.26-1.49.4-2.75.4-3.77Z"/>
      <path class="cls-1" d="m356.78,353.64l-10.5,59.35h-5.61l10.5-59.35h5.61Z"/>
      <path class="cls-1" d="m366.72,379.18c2.41-3.39,5.36-6.01,8.86-7.86,3.5-1.84,7.26-2.76,11.27-2.76s7.59.95,10.26,2.88,4.41,4.39,5.21,7.38l1.68-9.62h5.61l-7.7,43.78h-5.61l1.68-9.7c-1.82,2.99-4.43,5.47-7.82,7.42-3.39,1.95-7.18,2.92-11.34,2.92-3.47,0-6.52-.72-9.15-2.17-2.62-1.44-4.65-3.49-6.09-6.13-1.44-2.65-2.17-5.76-2.17-9.34,0-1.55.16-3.21.48-4.97.8-4.49,2.41-8.43,4.81-11.83Zm33.84,7.9c0-4.17-1.25-7.49-3.77-9.94-2.51-2.46-5.77-3.7-9.78-3.7-3.1,0-6,.7-8.7,2.09-2.7,1.39-4.99,3.4-6.86,6.05-1.87,2.66-3.13,5.8-3.77,9.43-.27,1.6-.4,2.96-.4,4.09,0,4.23,1.24,7.55,3.73,9.99,2.49,2.43,5.74,3.64,9.74,3.64,2.99,0,5.87-.72,8.62-2.16,2.75-1.45,5.08-3.51,6.98-6.18,1.9-2.67,3.17-5.78,3.81-9.3.26-1.5.4-2.84.4-4.01Z"/>
      <path class="cls-1" d="m420.13,410.54c-2.78-2.06-4.17-4.88-4.17-8.46,0-.64.03-1.12.08-1.44h5.45c-.22,2.56.53,4.62,2.24,6.17,1.71,1.55,4.23,2.33,7.54,2.33s6.06-.7,8.1-2.13c2.03-1.41,3.05-3.3,3.05-5.65,0-1.39-.43-2.57-1.28-3.53-.86-.96-1.91-1.75-3.17-2.37-1.25-.61-3.01-1.32-5.25-2.12-2.78-1.02-5.02-1.97-6.7-2.85-1.68-.88-3.13-2.11-4.33-3.69-1.2-1.57-1.8-3.57-1.8-5.97s.69-4.55,2.09-6.42c1.39-1.87,3.3-3.31,5.73-4.33s5.2-1.52,8.3-1.52c4.33,0,7.87,1.07,10.63,3.2,2.75,2.14,4.13,4.97,4.13,8.5,0,.75-.03,1.31-.08,1.68h-5.29c.05-.21.08-.56.08-1.04,0-2.35-.92-4.25-2.77-5.69-1.84-1.45-4.21-2.17-7.1-2.17s-5.28.69-7.18,2.05c-1.9,1.36-2.85,3.19-2.85,5.49,0,1.55.46,2.85,1.37,3.89.91,1.04,2.03,1.88,3.37,2.52s3.13,1.4,5.38,2.25c2.67,1.02,4.82,1.95,6.46,2.81,1.63.85,3.01,2.03,4.13,3.52,1.12,1.5,1.68,3.38,1.68,5.61,0,3.8-1.58,6.82-4.73,9.07s-7.24,3.37-12.27,3.37c-4.44,0-8.05-1.03-10.83-3.09Z"/>
      <path class="cls-1" d="m493.75,411.42c-2.78-1.48-4.93-3.56-6.46-6.26s-2.29-5.87-2.29-9.5c0-4.92,1.12-9.45,3.37-13.6,2.25-4.14,5.38-7.43,9.38-9.87,4.01-2.43,8.47-3.64,13.39-3.64,3.64,0,6.84.73,9.62,2.2,2.78,1.47,4.95,3.56,6.5,6.26,1.55,2.7,2.33,5.87,2.33,9.5,0,4.97-1.15,9.52-3.45,13.63-2.3,4.12-5.44,7.39-9.42,9.82-3.98,2.44-8.43,3.65-13.35,3.65-3.64,0-6.85-.74-9.62-2.2Zm20.49-5.58c3.02-2.03,5.37-4.73,7.06-8.1,1.68-3.37,2.52-7,2.52-10.91,0-4.38-1.27-7.72-3.81-10.02-2.54-2.3-5.76-3.45-9.67-3.45s-7.18,1.02-10.14,3.05c-2.97,2.04-5.28,4.74-6.94,8.1s-2.49,7-2.49,10.91c0,4.33,1.25,7.66,3.77,9.99,2.51,2.33,5.67,3.49,9.46,3.49s7.2-1.02,10.23-3.05Z"/>
      <path class="cls-1" d="m555.9,370.89c2.83-1.66,6.12-2.49,9.86-2.49l-1.04,5.86h-1.61c-3.85,0-7.16.99-9.94,2.97s-4.7,5.24-5.77,9.78l-4.57,25.99h-5.61l7.7-43.78h5.61l-1.52,8.74c1.77-3.05,4.06-5.4,6.9-7.05Z"/>
      <path class="cls-1" d="m604.3,371.44c2.7,1.93,4.45,4.36,5.25,7.3l1.68-9.54h5.61l-7.86,44.9c-.7,4.02-2.18,7.57-4.45,10.67-2.27,3.1-5.12,5.49-8.54,7.18-3.42,1.68-7.11,2.52-11.07,2.52-5.61,0-10.04-1.34-13.27-4.01-3.24-2.67-4.91-6.31-5.02-10.91h5.54c.43,3.05,1.82,5.47,4.17,7.3,2.35,1.81,5.51,2.72,9.46,2.72,4.33,0,8.13-1.37,11.39-4.13,3.26-2.75,5.32-6.53,6.18-11.35l1.84-10.82c-1.82,2.99-4.43,5.47-7.82,7.42-3.39,1.95-7.15,2.92-11.27,2.92-5.29,0-9.53-1.59-12.71-4.77s-4.77-7.47-4.77-12.87c0-1.55.16-3.21.48-4.97.8-4.49,2.41-8.43,4.81-11.83,2.41-3.39,5.36-6.01,8.86-7.86,3.5-1.84,7.26-2.76,11.27-2.76s7.53.95,10.23,2.88Zm3.49,15.64c0-4.17-1.25-7.49-3.77-9.94-2.51-2.46-5.77-3.7-9.78-3.7-3.1,0-6,.7-8.7,2.09-2.7,1.39-4.99,3.4-6.86,6.05-1.87,2.66-3.13,5.8-3.77,9.43-.27,1.6-.4,2.96-.4,4.09,0,4.23,1.24,7.55,3.73,9.99,2.49,2.43,5.74,3.64,9.74,3.64,2.99,0,5.87-.72,8.62-2.16,2.75-1.45,5.08-3.51,6.98-6.18,1.9-2.67,3.17-5.78,3.81-9.3.26-1.5.4-2.84.4-4.01Z"/>
      <path class="cls-1" d="m629.68,379.18c2.41-3.39,5.36-6.01,8.86-7.86,3.5-1.84,7.26-2.76,11.27-2.76s7.59.95,10.26,2.88,4.41,4.39,5.21,7.38l1.68-9.62h5.61l-7.7,43.78h-5.61l1.68-9.7c-1.82,2.99-4.43,5.47-7.82,7.42-3.39,1.95-7.18,2.92-11.34,2.92-3.47,0-6.52-.72-9.15-2.17-2.62-1.44-4.65-3.49-6.09-6.13-1.44-2.65-2.17-5.76-2.17-9.34,0-1.55.16-3.21.48-4.97.8-4.49,2.41-8.43,4.81-11.83Zm33.84,7.9c0-4.17-1.25-7.49-3.77-9.94-2.51-2.46-5.77-3.7-9.78-3.7-3.1,0-6,.7-8.7,2.09-2.7,1.39-4.99,3.4-6.86,6.05-1.87,2.66-3.13,5.8-3.77,9.43-.27,1.6-.4,2.96-.4,4.09,0,4.23,1.24,7.55,3.73,9.99,2.49,2.43,5.74,3.64,9.74,3.64,2.99,0,5.87-.72,8.62-2.16,2.75-1.45,5.08-3.51,6.98-6.18,1.9-2.67,3.17-5.78,3.81-9.3.26-1.5.4-2.84.4-4.01Z"/>
      <path class="cls-1" d="m718.57,372.05c2.7,2.43,4.05,5.97,4.05,10.62,0,1.72-.13,3.26-.4,4.65l-4.57,25.67h-5.54l4.41-25.02c.21-1.22.32-2.53.32-3.93,0-3.52-.96-6.2-2.89-8.02-1.92-1.81-4.62-2.72-8.1-2.72-4.22,0-7.83,1.34-10.82,4.01-3,2.67-4.95,6.6-5.86,11.79v-.24l-4.25,24.14h-5.61l7.7-43.78h5.61l-1.36,7.53c1.87-2.67,4.25-4.73,7.14-6.17,2.89-1.45,6.01-2.17,9.38-2.17,4.49,0,8.09,1.21,10.78,3.65Z"/>
      <path class="cls-1" d="m745,369.2l-7.7,43.78h-5.61l7.7-43.78h5.61Zm-3.77-9.19c-.64-.62-.96-1.43-.96-2.45,0-1.39.48-2.55,1.44-3.49.96-.93,2.11-1.4,3.45-1.4,1.02,0,1.83.29,2.45.88.61.59.92,1.36.92,2.33,0,1.4-.48,2.59-1.44,3.57s-2.09,1.48-3.37,1.48c-1.02,0-1.84-.31-2.49-.93Z"/>
      <path class="cls-1" d="m755.5,408.33h22.94l-.89,4.65h-29.35l.88-4.65,28.55-34.48h-22.13l.88-4.65h28.55l-.88,4.65-28.55,34.48Z"/>
      <path class="cls-1" d="m794.71,379.18c2.41-3.39,5.36-6.01,8.86-7.86,3.5-1.84,7.26-2.76,11.27-2.76s7.59.95,10.26,2.88,4.41,4.39,5.21,7.38l1.68-9.62h5.61l-7.7,43.78h-5.61l1.68-9.7c-1.82,2.99-4.43,5.47-7.82,7.42-3.39,1.95-7.18,2.92-11.34,2.92-3.47,0-6.52-.72-9.15-2.17-2.62-1.44-4.65-3.49-6.09-6.13-1.44-2.65-2.17-5.76-2.17-9.34,0-1.55.16-3.21.48-4.97.8-4.49,2.41-8.43,4.81-11.83Zm33.84,7.9c0-4.17-1.25-7.49-3.77-9.94-2.51-2.46-5.77-3.7-9.78-3.7-3.1,0-6,.7-8.7,2.09-2.7,1.39-4.99,3.4-6.86,6.05-1.87,2.66-3.13,5.8-3.77,9.43-.27,1.6-.4,2.96-.4,4.09,0,4.23,1.24,7.55,3.73,9.99,2.49,2.43,5.74,3.64,9.74,3.64,2.99,0,5.87-.72,8.62-2.16,2.75-1.45,5.08-3.51,6.98-6.18,1.9-2.67,3.17-5.78,3.81-9.3.26-1.5.4-2.84.4-4.01Z"/>
      <path class="cls-1" d="m914.97,372.01c2.65,2.4,3.97,5.93,3.97,10.59,0,1.44-.16,3.02-.48,4.73l-4.57,25.67h-5.53l4.49-25.02c.27-1.61.4-2.94.4-4.01,0-3.47-.93-6.12-2.81-7.94-1.87-1.81-4.52-2.72-7.94-2.72-3.8,0-7.12,1.21-9.98,3.61s-4.85,5.88-5.97,10.42l-4.65,25.67h-5.54l4.49-25.02c.27-1.61.4-2.94.4-4.01,0-3.47-.94-6.12-2.81-7.94-1.87-1.81-4.49-2.72-7.86-2.72-4.06,0-7.57,1.32-10.5,3.97-2.94,2.65-4.89,6.46-5.86,11.43l-4.25,24.3h-5.61l7.7-43.78h5.61l-1.36,7.62c1.82-2.73,4.16-4.82,7.02-6.26,2.86-1.45,5.9-2.17,9.1-2.17,3.8,0,6.95.91,9.47,2.72,2.51,1.82,4.09,4.49,4.73,8.03,1.77-3.48,4.25-6.13,7.46-7.98,3.21-1.85,6.66-2.77,10.35-2.77,4.38,0,7.9,1.21,10.55,3.61Z"/>
      <path class="cls-1" d="m937.54,411.42c-2.78-1.48-4.93-3.56-6.46-6.26s-2.29-5.87-2.29-9.5c0-4.92,1.12-9.45,3.37-13.6,2.25-4.14,5.38-7.43,9.38-9.87,4.01-2.43,8.47-3.64,13.39-3.64,3.64,0,6.84.73,9.62,2.2,2.78,1.47,4.95,3.56,6.5,6.26,1.55,2.7,2.33,5.87,2.33,9.5,0,4.97-1.15,9.52-3.45,13.63-2.3,4.12-5.44,7.39-9.42,9.82-3.98,2.44-8.43,3.65-13.35,3.65-3.64,0-6.85-.74-9.62-2.2Zm20.49-5.58c3.02-2.03,5.37-4.73,7.06-8.1,1.68-3.37,2.52-7,2.52-10.91,0-4.38-1.27-7.72-3.81-10.02-2.54-2.3-5.76-3.45-9.67-3.45s-7.18,1.02-10.14,3.05c-2.97,2.04-5.28,4.74-6.94,8.1s-2.49,7-2.49,10.91c0,4.33,1.25,7.66,3.77,9.99,2.51,2.33,5.67,3.49,9.46,3.49s7.2-1.02,10.23-3.05Z"/>
      <path class="cls-1" d="m984.77,410.54c-2.78-2.06-4.17-4.88-4.17-8.46,0-.64.03-1.12.08-1.44h5.45c-.22,2.56.53,4.62,2.24,6.17,1.71,1.55,4.23,2.33,7.54,2.33s6.06-.7,8.1-2.13c2.03-1.41,3.05-3.3,3.05-5.65,0-1.39-.43-2.57-1.28-3.53-.86-.96-1.91-1.75-3.17-2.37-1.25-.61-3.01-1.32-5.25-2.12-2.78-1.02-5.02-1.97-6.7-2.85-1.68-.88-3.13-2.11-4.33-3.69-1.2-1.57-1.8-3.57-1.8-5.97s.69-4.55,2.09-6.42c1.39-1.87,3.3-3.31,5.73-4.33s5.2-1.52,8.3-1.52c4.33,0,7.87,1.07,10.63,3.2,2.75,2.14,4.13,4.97,4.13,8.5,0,.75-.03,1.31-.08,1.68h-5.29c.05-.21.08-.56.08-1.04,0-2.35-.92-4.25-2.77-5.69-1.84-1.45-4.21-2.17-7.1-2.17s-5.28.69-7.18,2.05c-1.9,1.36-2.85,3.19-2.85,5.49,0,1.55.46,2.85,1.37,3.89.91,1.04,2.03,1.88,3.37,2.52s3.13,1.4,5.38,2.25c2.67,1.02,4.82,1.95,6.46,2.81,1.63.85,3.01,2.03,4.13,3.52,1.12,1.5,1.68,3.38,1.68,5.61,0,3.8-1.58,6.82-4.73,9.07s-7.24,3.37-12.27,3.37c-4.44,0-8.05-1.03-10.83-3.09Z"/>
      <path class="cls-1" d="m1057.95,359.74c2.7,2.35,4.05,5.54,4.05,9.54,0,1.17-.11,2.27-.32,3.29-1.02,5.77-3.54,10.01-7.58,12.71-4.04,2.7-9.1,4.04-15.2,4.04l-1.84,8.82h-4.82l2.01-12.83h2c5.51,0,10-.87,13.47-2.6s5.67-5.12,6.58-10.14c.16-.91.24-1.71.24-2.41,0-2.83-.92-5.06-2.77-6.69s-4.35-2.45-7.5-2.45c-3.64,0-6.71.99-9.22,2.97-2.52,1.98-4.09,4.68-4.73,8.1h-5.29c.85-4.81,3.14-8.66,6.85-11.55,3.72-2.88,8.11-4.33,13.19-4.33,4.55,0,8.17,1.18,10.87,3.53Zm-28.51,52.68c-.64-.64-.96-1.47-.96-2.48,0-1.28.49-2.41,1.48-3.37.99-.96,2.12-1.45,3.41-1.45,1.02,0,1.84.31,2.49.93.64.61.96,1.42.96,2.44,0,1.28-.49,2.42-1.48,3.41s-2.13,1.48-3.41,1.48c-1.02,0-1.85-.32-2.49-.96Z"/>
    </g>
    <path class="cls-1" d="m1014.8,196.83h-6.39c0-9.43-3.8-17.01-11.39-22.77-7.6-5.76-17.67-8.64-30.23-8.64-10.21,0-18.65,2.17-25.33,6.48-6.67,4.32-10.01,9.76-10.01,16.3s3.27,12.24,9.81,17.08c6.54,4.85,14.72,9.61,24.54,14.33,9.82,4.71,20.42,9.68,31.8,14.92,11.39,5.23,21.99,11.52,31.81,18.84,9.81,7.34,17.99,16.1,24.54,26.31,6.54,10.21,9.82,22.52,9.82,36.91h-43.19c0-9.67-3.28-17.73-9.82-24.14-6.54-6.42-14.72-12.24-24.54-17.47-9.82-5.23-20.42-10.27-31.81-15.12-11.39-4.85-21.98-10.41-31.8-16.69-9.82-6.29-18-13.81-24.54-22.58-6.54-8.76-9.81-19.56-9.81-32.39,0-9.16,2.02-17.67,6.08-25.52,4.06-7.85,9.68-14.65,16.88-20.41,7.2-5.76,15.71-10.21,25.52-13.35,9.82-3.15,20.61-4.72,32.39-4.72s23.49,1.77,33.57,5.3c10.08,3.54,18.71,8.51,25.92,14.92.68.6,4.59,4.14,8.15,8.64.12.15.24.31.36.46,13.65,17.61-.07,43.32-22.35,43.32Zm-99.05,68.71c7.86,0,14.39,2.62,19.63,7.86,5.23,5.23,7.85,11.78,7.85,19.63s-2.62,14.4-7.85,19.63c-5.24,5.23-11.78,7.86-19.63,7.86s-14.4-2.62-19.63-7.86c-5.24-5.23-7.85-11.78-7.85-19.63s2.61-14.39,7.85-19.63c5.23-5.23,11.78-7.86,19.63-7.86Z"/>
    <path class="cls-1" d="m373.46,220.38v-25.52h43.19v51.82c.07,7.06.87,15.73,3.41,25.3,5.81,21.93,17.63,36.84,24.83,44.6-12.34.1-23.52-2.26-33.53-7.07-9.82-4.71-17.74-11.25-23.76-19.63-8.64,8.38-18.65,14.93-30.03,19.63-11.39,4.71-23.76,7.07-37.1,7.07s-25.91-2.5-37.69-7.47c-11.78-4.97-21.99-11.78-30.62-20.42-8.64-8.63-15.45-18.84-20.42-30.62-4.98-11.78-7.46-24.34-7.46-37.69s2.48-26.24,7.46-37.89c4.97-11.65,11.78-21.79,20.42-30.43,8.64-8.63,18.85-15.44,30.62-20.41,11.78-4.98,24.34-7.47,37.69-7.47h53c23.85,0,43.19,19.34,43.19,43.19h0s-96.19,0-96.19,0c-7.33,0-14.2,1.37-20.61,4.12-6.42,2.74-12.04,6.48-16.88,11.18-4.85,4.72-8.64,10.29-11.39,16.7-2.75,6.42-4.12,13.42-4.12,21.01s1.38,14.26,4.12,20.81c2.75,6.54,6.54,12.17,11.39,16.88,4.84,4.72,10.47,8.44,16.88,11.19,6.41,2.74,13.28,4.11,20.61,4.11s14.59-1.37,21.01-4.11c6.41-2.75,11.98-6.48,16.69-11.19,4.71-4.72,8.44-10.34,11.19-16.88,2.75-6.54,4.12-13.48,4.12-20.81Z"/>
    <path class="cls-1" d="m795.79,220.38v-25.52h43.19v51.82c.07,7.06.87,15.73,3.41,25.3,5.81,21.93,17.63,36.84,24.83,44.6-12.34.1-23.52-2.26-33.53-7.07-9.82-4.71-17.74-11.25-23.76-19.63-8.64,8.38-18.65,14.93-30.03,19.63-11.39,4.71-23.76,7.07-37.1,7.07s-25.91-2.5-37.69-7.47c-11.78-4.97-21.99-11.78-30.62-20.42-8.64-8.63-15.45-18.84-20.42-30.62-4.98-11.78-7.46-24.34-7.46-37.69s2.48-26.24,7.46-37.89c4.97-11.65,11.78-21.79,20.42-30.43,8.64-8.63,18.85-15.44,30.62-20.41,11.78-4.98,24.34-7.47,37.69-7.47h53c23.85,0,43.19,19.34,43.19,43.19h0s-96.19,0-96.19,0c-7.33,0-14.2,1.37-20.61,4.12-6.42,2.74-12.04,6.48-16.88,11.18-4.85,4.72-8.64,10.29-11.39,16.7-2.75,6.42-4.12,13.42-4.12,21.01s1.38,14.26,4.12,20.81c2.75,6.54,6.54,12.17,11.39,16.88,4.84,4.72,10.47,8.44,16.88,11.19,6.41,2.74,13.28,4.11,20.61,4.11s14.59-1.37,21.01-4.11c6.41-2.75,11.98-6.48,16.69-11.19,4.71-4.72,8.44-10.34,11.19-16.88,2.75-6.54,4.12-13.48,4.12-20.81Z"/>
    <path class="cls-2" d="m170.12,231.71c-7.12-13.32-14.24-24.41-21.36-33.36-7.22-8.85-15.05-16.07-23.39-21.56,21.46-12.61,38.44-30,50.85-52.17,4.81-8.64,8.69-17.69,11.64-27.16,7.42-23.84-11.28-47.9-36.25-47.9,0,14.44-2.44,27.97-7.43,40.68-4.98,12.71-11.8,23.7-20.44,33.15-8.64,9.46-18.81,16.78-30.61,22.17-11.8,5.39-24.31,8.03-37.63,8.03h-7.93V49.57C21.56,49.57.48,70.65.48,96.66v216.01c26.01,0,47.09-21.08,47.09-47.09v-68.75h3.97c8.95,0,16.78.81,23.59,2.54,6.81,1.73,13.12,4.68,19.02,9.05,5.9,4.27,11.49,10.07,16.88,17.29,5.39,7.12,10.88,16.17,16.68,26.85l6.93,12.8c15.78,29.15,46.27,47.31,79.42,47.31l-43.94-80.95Z"/>
    <path class="cls-1" d="m663.43,56.17c-1.14-1.67-2.43-2.68-3.8-3.22-3.48-1.35-7.56.26-11.66,2.69-10.12,5.99-18.65,11.03-22.51,21.37-4.57,12.24,1.26,21.54-4.68,25.77-2.34,1.67-3.45.36-10.27,1.26-4.83.64-16.39,2.16-22.48,9.86-3.16,3.99-1.26,5.78-5.69,11.59-2.74,3.59-4.03,5.45-9.48,9.73-11.31,8.88-5.94,29.65-19.46,38.01-1.89,1.17-5.42,3.35-9.37,2.52-6.13-1.29-7.02-8.55-15.13-13.33-3.89-2.29-5.65-1.78-10.09-3.24-23.06-7.58-31.12-39.56-31.3-45.32-.03-.9-.01-1.83-.01-1.83-.42-6.9,1.74-13.04,6.24-18.11,2.9-3.26,4.82-6.82,6.34-10.84,2.26-6,.42-10.89-4.33-14.24-5.08-3.58-11.18-2.94-14.4,2.17-4.6,7.29-8.35,4.41-12.71.57-5.5-4.85-10.68-10.13-16.49-14.57-9.63-7.36-19.46-13.46-32.86-8.81-8.49,2.95-14.36-1.22-17.68-10.08-4.43-11.84-8.06-24.38-17.83-33.32-4.41-4.04-9.93-6.99-15.68-2.63-4.98,3.77-5.93,8.72-4.07,15.22,1.99,6.98,5.34,12.78,9.99,17.95,4.1,4.56,8.21,9.24,13.86,12.09,27.03,13.67,40.85,38.69,55.05,63.57,6.07,10.63,11.43,21.54,16.54,32.56l6.72,19.73h-.1c.06.17.13.33.19.5,15.49,40.63,33.59,80.28,48.07,121.35,2.41,6.83,5.43,13.45,8.35,20.08,3.23,7.32,8.65,11.65,16.99,11.34,8.18-.3,15.01-3.1,18.87-10.92,7.92-16.03,14.24-32.74,21.07-49.22,11.05-26.7,20-54.14,30.82-80.88,8.07-19.95,14.63-40.51,22.07-60.72,6.04-16.42,13.72-31.91,27.6-43.33,5.33-4.38,6.93-10.07,3.35-15.31Z"/>
  </g>
</svg>