<?xml version="1.0" encoding="utf-8"?>
<!-- Generator: $$$/GeneralStr/196=Adobe Illustrator 27.6.0, SVG Export Plug-In . SVG Version: 6.00 Build 0)  -->
<svg version="1.1" id="Capa_2_00000165934483953893534720000000768554771774452124_"
	 xmlns="http://www.w3.org/2000/svg" xmlns:xlink="http://www.w3.org/1999/xlink" x="0px" y="0px" viewBox="0 0 813.5 813.5"
	 style="enable-background:new 0 0 813.5 813.5;" xml:space="preserve">
<style type="text/css">
	.st0{fill:#FA8E36;}
	.st1{fill:url(#SVGID_1_);}
	.st2{fill:#FFDCAA;enable-background:new    ;}
	.st3{fill:#FFFFFF;}
</style>
<g id="Capa_1-2">
	<path class="st0" d="M813.4,170.1v473.5c0.1,2.7,0,5.4-0.2,8.1c-0.2,2.6-0.4,5.2-0.6,7.7c-0.3,2.7-0.6,5.4-1,8.1
		c-11.5,82.5-82.4,146.1-168.2,146.1H170c-2.9,0-6.2-0.1-9.8-0.3c-2.6-0.2-5.1-0.4-7.6-0.6c-2.7-0.3-5.3-0.6-8-1
		c-4.7-0.7-9.7-1.7-14.8-2.9c-1.5-0.4-4.1-1-7.4-2c-2.3-0.6-4.9-1.5-7.8-2.5c-2.7-1-5.7-2.1-8.8-3.5c-2.1-0.8-4.3-1.7-6.3-2.8
		c-2.6-1.2-5.3-2.5-8.1-4c-1.9-1-3.9-2-5.9-3.2c-1.8-1-3.6-2-5.5-3.3c-2.7-1.6-5.2-3.3-7.7-5.1c-0.8-0.5-1.6-1.1-2.4-1.7
		c-1.9-1.4-4-2.8-6-4.4c-1.8-1.4-3.5-2.9-5.3-4.4c-0.4-0.4-0.8-0.7-1.2-1.1c-2-1.7-3.8-3.5-5.8-5.3c-1.5-1.5-3-3-4.4-4.5
		s-2.8-3-4.2-4.5c-2.9-3.3-5.6-6.7-8.2-10C13.4,718.4,0.6,683.9,0.1,646.1c0-1.7-0.1-3.1-0.1-4.2V170.1C0,76.1,76.1,0,170,0h473.5
		C737.3,0,813.4,76.1,813.4,170.1L813.4,170.1z"/>
	
		<linearGradient id="SVGID_1_" gradientUnits="userSpaceOnUse" x1="397.5856" y1="347.4191" x2="457.2556" y2="59.9191" gradientTransform="matrix(1 0 0 -1 0 816)">
		<stop  offset="0.13" style="stop-color:#FFAA0B"/>
		<stop  offset="1" style="stop-color:#FA9500"/>
	</linearGradient>
	<path class="st1" d="M813.5,641.9c0,0.5,0,1.1-0.1,1.6c0.1,2.7,0,5.4-0.2,8.1c-0.2,2.6-0.4,5.2-0.6,7.7c-0.3,2.7-0.6,5.4-1,8.1
		C799.3,749.2,728.7,812,643.5,812c-157.9,0.5-315.7,1-473.6,1.5c-2.9,0-6.2-0.1-9.8-0.3c-2.6-0.2-5.1-0.4-7.6-0.6
		c-2.7-0.3-5.3-0.6-8-1c-4.7-0.7-9.7-1.7-14.8-2.9c-1.5-0.4-4.1-1-7.4-2c-2.3-0.6-4.9-1.5-7.8-2.5c-2.7-1-5.7-2.1-8.8-3.5
		c-2.1-0.8-4.3-1.7-6.3-2.8c-2.6-1.2-5.3-2.5-8.1-4c-1.9-1-3.9-2-5.9-3.2c-1.8-1-3.6-2-5.5-3.3c-2.7-1.6-5.2-3.3-7.7-5.1
		c-0.8-0.5-1.6-1.1-2.4-1.7c-1.9-1.4-4-2.8-6-4.4c-1.8-1.4-3.5-2.9-5.3-4.4c-0.4-0.4-0.8-0.7-1.2-1.1c-2-1.7-3.8-3.5-5.8-5.3
		c-1.5-1.5-3-3-4.4-4.5s-2.8-3-4.2-4.5c-2.9-3.3-5.6-6.7-8.2-10C5.2,706.7,0.9,662.7,0.1,646.1c0-1.7-0.1-3.1-0.1-4.2V403.4
		c42.3,6.1,84.7,12.3,127,18.3c19.6,6.9,50.4,17,88.8,25.5c73.7,16.5,182.6,41,288.7,6.8c25.4-8.2,50.1-19.5,105.7-35.7
		c33.8-9.8,41.9-10.5,71.4-20.5c32.6-11.1,44.1-17.4,68.8-23.1c3.8-0.9,7.6-1.7,11.3-2.3c21.3-4,39.3-4.7,51.7-4.6v40.6
		C813.4,486.2,813.5,564.1,813.5,641.9L813.5,641.9z"/>
	<path class="st2" d="M813.4,357.4V368c-41.8,9-82.9,23.2-121.5,39.8C571.2,469.2,430.5,537,289.6,496.2l-29.8-10.5
		C176.1,450.2,90,424.1,0,407.5v-10.3c93.6-3.5,188.4,15.5,276.5,46.7l25.5,7.5c110.2,25.6,217.9-13.6,323-53.6
		C684.1,373.9,748.9,356.7,813.4,357.4L813.4,357.4z"/>
	<path class="st3" d="M572.2,518.1c-11.7-21.9-23.4-41-35-57.4c-3.9-5.5-7.8-10.7-11.7-15.6c-15.8-19.4-32.9-35.2-51.2-47.2
		c47-27.6,84.1-65.6,111.3-114.2c10.5-18.9,19-38.7,25.5-59.4c16.2-52.2-24.7-104.8-79.3-104.8c0,31.6-5.3,61.2-16.2,89
		c-10.9,27.8-25.8,51.9-44.7,72.5c-18.9,20.7-41.2,36.7-67,48.5s-53.2,17.6-82.3,17.6H304V119.5c-56.9,0-103,46.1-103,103v472.7
		c56.9,0,103-46.1,103-103V441.7h8.7c19.6,0,36.7,1.8,51.6,5.6s28.7,10.2,41.6,19.8c6.4,4.6,12.6,10.1,18.7,16.3
		c6.2,6.4,12.3,13.6,18.3,21.6c11.8,15.6,23.8,35.4,36.5,58.8l15.2,28c34.5,63.8,101.2,103.5,173.8,103.5L572.2,518.1L572.2,518.1z"
		/>
</g>
</svg>
