<svg width="2504" height="629" viewBox="0 0 2504 629" fill="none" xmlns="http://www.w3.org/2000/svg">
<path d="M678.934 501.311C706.204 501.311 728.264 493.031 745.104 476.461C761.944 459.891 770.374 437.961 770.374 410.691V280.761C770.374 232.041 809.874 192.541 858.594 192.541V407.481C858.594 434.751 854.304 459.331 845.764 481.261C837.204 503.191 825.174 521.891 809.674 537.391C794.154 552.911 775.304 564.801 753.134 573.071C730.944 581.371 706.214 585.511 678.944 585.511C651.674 585.511 626.934 581.371 604.754 573.071C582.574 564.791 563.584 552.901 547.814 537.391C532.034 521.891 519.864 503.191 511.314 481.261C502.764 459.331 498.484 434.741 498.484 407.481V280.771C498.484 232.041 537.984 192.541 586.714 192.541V410.691C586.714 437.961 595.254 459.891 612.374 476.461C629.474 493.031 651.674 501.311 678.934 501.311Z" fill="#02DF82"/>
<path d="M1227.5 389.051C1227.5 360.261 1250.84 336.911 1279.64 336.911H1315.72V442.771C1315.72 459.891 1320.66 473.241 1330.56 482.881L1330.86 483.171C1353.41 504.901 1371.87 548.311 1371.87 579.631V585.531C1347.27 585.531 1324.95 580.721 1304.9 571.091C1284.85 561.471 1268.67 548.131 1256.37 531.001C1238.73 548.121 1218.28 561.471 1195.02 571.091C1171.76 580.731 1146.49 585.531 1119.23 585.531C1091.97 585.531 1066.3 580.441 1042.24 570.291C1018.18 560.151 997.325 546.231 979.695 528.581C962.045 510.951 948.135 490.101 937.985 466.041C927.825 441.981 922.745 416.321 922.745 389.051C922.745 361.781 927.815 335.451 937.985 311.661C948.135 287.861 962.045 267.151 979.695 249.501C997.335 231.851 1018.18 217.951 1042.24 207.791C1066.3 197.651 1091.96 192.551 1119.23 192.551H1227.49C1276.22 192.551 1315.72 232.051 1315.72 280.781H1119.23C1104.26 280.781 1090.22 283.581 1077.12 289.201C1064.01 294.801 1052.52 302.431 1042.63 312.041C1032.73 321.681 1024.99 333.041 1019.37 346.141C1013.76 359.251 1010.95 373.531 1010.95 389.051C1010.95 404.571 1013.76 418.181 1019.37 431.551C1024.99 444.921 1032.73 456.401 1042.63 466.041C1052.52 475.661 1064.01 483.281 1077.12 488.881C1090.22 494.501 1104.25 497.301 1119.23 497.301C1134.21 497.301 1149.03 494.501 1162.14 488.881C1175.24 483.281 1186.61 475.651 1196.22 466.041C1205.85 456.401 1213.46 444.921 1219.08 431.551C1224.69 418.181 1227.5 404.021 1227.5 389.051Z" fill="#02DF82"/>
<path d="M1600.42 272.741C1572.62 272.741 1550.29 280.901 1533.45 297.211C1516.61 313.521 1508.19 335.311 1508.19 362.571V489.281C1508.19 538.011 1468.69 577.511 1419.96 577.511V362.571C1419.96 336.911 1424.5 313.111 1433.59 291.201C1442.68 269.271 1455.25 250.421 1471.28 234.641C1487.33 218.881 1506.3 206.581 1528.23 197.761C1550.15 188.941 1574.21 184.531 1600.41 184.531C1626.61 184.531 1650.66 188.931 1672.59 197.761C1694.51 206.581 1713.49 218.881 1729.54 234.641C1745.58 250.421 1758 269.271 1766.83 291.201C1775.65 313.111 1780.07 336.911 1780.07 362.571V489.291C1780.07 538.011 1740.57 577.511 1691.85 577.511V362.571C1691.85 335.301 1683.55 313.521 1666.99 297.211C1650.41 280.901 1628.21 272.741 1600.42 272.741Z" fill="#02DF82"/>
<path d="M1877.92 192.551V176.511C1877.92 127.791 1917.42 88.291 1966.14 88.291V192.541H2058.37C2058.37 241.271 2018.87 280.771 1970.14 280.771H1966.13V409.081C1966.13 437.951 1974.02 459.881 1989.79 474.851C1993.48 478.351 1997.55 481.451 2002.02 484.131C2037.39 505.381 2058.36 544.251 2058.36 585.521C2031.09 585.521 2006.35 581.241 1984.17 572.701C1961.99 564.141 1943 552.231 1927.23 536.991C1911.45 521.751 1899.28 503.191 1890.73 481.261C1882.18 459.331 1877.9 435.271 1877.9 409.081V280.771H1829.78V240.661C1829.78 214.081 1851.32 192.541 1877.9 192.541L1877.92 192.551Z" fill="#02DF82"/>
<path d="M2102.47 385.031C2102.47 356.691 2107.68 330.361 2118.11 306.031C2128.54 281.711 2142.7 260.451 2160.61 242.271C2178.52 224.091 2199.77 209.931 2224.37 199.771C2248.96 189.611 2275.16 184.531 2302.96 184.531C2330.76 184.531 2357.62 189.601 2381.96 199.771C2406.28 209.931 2427.54 224.091 2445.72 242.271C2463.89 260.451 2478.07 281.711 2488.23 306.031C2498.37 330.351 2503.47 356.691 2503.47 385.031C2503.47 413.371 2498.38 439.031 2488.23 463.621C2478.07 488.231 2463.89 509.471 2445.72 527.381C2427.54 545.291 2406.28 559.451 2381.96 569.881C2357.63 580.311 2331.3 585.521 2302.96 585.521C2274.62 585.521 2248.96 580.311 2224.37 569.881C2199.77 559.451 2178.52 545.291 2160.61 527.381C2142.7 509.471 2128.54 488.231 2118.11 463.621C2107.68 439.031 2102.47 412.841 2102.47 385.031ZM2190.69 385.031C2190.69 401.081 2193.62 415.911 2199.51 429.541C2205.38 443.171 2213.26 454.941 2223.16 464.821C2233.05 474.721 2244.82 482.611 2258.45 488.491C2272.08 494.371 2286.92 497.291 2302.96 497.291C2319 497.291 2333.84 494.371 2347.48 488.491C2361.11 482.611 2373 474.721 2383.16 464.821C2393.31 454.941 2401.21 443.171 2406.81 429.541C2412.43 415.911 2415.24 401.081 2415.24 385.031C2415.24 368.981 2412.43 354.151 2406.81 340.521C2401.2 326.891 2393.31 315.001 2383.16 304.841C2373 294.681 2361.11 286.781 2347.48 281.171C2333.84 275.571 2319.01 272.751 2302.96 272.751C2286.91 272.751 2272.08 275.571 2258.45 281.171C2244.82 286.791 2233.05 294.681 2223.16 304.841C2213.26 315.001 2205.38 326.891 2199.51 340.521C2193.62 354.151 2190.69 368.981 2190.69 385.031Z" fill="#02DF82"/>
<path d="M379.275 433.351C367.065 411.021 354.865 391.491 342.685 374.681C338.615 369.071 334.545 363.781 330.475 358.781C313.985 339.011 296.095 322.871 277.065 310.591C326.075 282.411 364.845 243.561 393.195 194.001C404.195 174.681 413.075 154.461 419.785 133.301C436.745 80.031 394.005 26.251 336.995 26.251C336.995 58.521 331.395 88.761 320.015 117.161C308.655 145.591 293.095 170.141 273.325 191.271C253.585 212.401 230.375 228.781 203.425 240.831C197.965 243.261 192.425 245.451 186.825 247.381C186.745 206.531 186.665 165.661 186.555 124.811C188.195 124.941 190.485 125.181 193.195 125.691C211.695 129.161 223.835 140.301 230.385 146.451C235.565 151.311 242.875 159.271 249.135 170.951C256.585 163.681 264.895 154.511 273.035 143.271C281.845 131.111 288.265 119.541 292.955 109.651C282.895 100.961 270.205 91.431 254.685 82.521C229.675 68.161 206.135 60.491 188.195 56.211C188.165 54.931 188.195 52.761 188.225 50.091C188.475 34.571 189.535 30.831 188.415 23.591C187.545 18.111 187.045 14.851 184.615 11.141C180.445 4.81097 172.415 -0.0790324 163.215 0.000967643C150.905 0.0809676 143.775 9.03097 142.705 10.391C138.415 16.001 137.595 21.821 137.385 24.441C137.415 35.341 137.415 46.241 137.415 57.171C136.815 57.301 135.745 57.541 134.415 57.861C120.515 61.091 109.845 64.191 107.715 64.701C85.4345 70.021 66.5345 81.211 50.1845 96.381C30.0845 115.031 17.6345 137.921 12.3945 164.741C6.30452 195.971 9.00452 226.561 21.5445 255.461C31.9745 279.531 49.1745 299.091 71.7545 313.941C85.7345 323.161 100.155 331.441 115.715 337.481C117.955 338.331 120.225 339.141 122.515 339.911C124.285 340.521 125.605 340.901 126.395 341.141C128.875 341.911 132.595 343.091 137.695 344.831C137.745 348.621 137.835 352.441 137.885 356.241V356.881C137.695 404.891 137.505 452.921 137.315 500.931C135.975 500.481 134.035 499.781 131.695 498.851C131.695 498.851 122.525 494.921 114.165 490.301C95.3245 479.881 84.0445 462.891 76.9745 444.001C69.2745 423.431 57.8845 414.211 35.6945 413.441C15.3545 412.721 -1.16548 432.171 0.0645169 450.091C1.70452 474.001 13.1745 494.441 28.0745 512.711C35.6645 522.011 44.2345 530.291 53.7445 537.451C56.3345 539.431 65.6545 546.291 79.8445 553.241C91.9445 559.171 111.495 567.031 137.895 570.691C137.325 583.941 137.325 594.951 137.485 603.151C137.625 610.521 137.835 613.971 140.165 617.681C144.975 625.451 155.205 628.661 163.375 628.391C164.415 628.361 177.985 627.721 184.615 617.701C186.715 614.551 187.235 611.561 188.245 605.541C189.475 598.271 188.735 594.451 188.815 579.071C188.845 575.811 188.865 573.171 188.925 571.481C202.785 570.451 223.095 567.291 245.475 557.481C261.495 550.461 273.935 542.071 282.895 534.961C276.385 524.271 269.785 512.581 263.345 499.911C257.415 488.261 252.255 477.021 247.735 466.341C243.745 471.081 240.155 474.721 237.605 477.181C228.005 486.441 216.215 497.661 198.755 501.841C195.175 502.691 191.735 503.201 188.515 503.441C188.485 501.221 188.435 497.961 188.375 494.011C187.745 445.661 189.745 424.981 188.515 381.221C188.435 378.741 188.325 374.411 188.105 368.961C192.415 371.931 198.315 375.991 205.775 381.281C206.295 381.651 206.455 381.761 206.625 381.891C209.405 383.871 216.455 389.131 225.245 397.921C231.745 404.411 238.105 411.761 244.335 419.931C256.645 435.831 269.185 456.051 282.425 479.931L298.265 508.521C334.305 573.681 403.935 614.261 479.655 614.261L379.305 433.341L379.275 433.351ZM138.065 253.321C136.315 253.371 133.665 253.351 130.585 252.791C107.235 248.541 87.6845 219.401 88.1245 192.201C88.3445 178.871 91.3445 167.491 97.0245 157.791C106.255 141.951 119.635 134.441 125.095 131.451C130.365 128.561 135.085 126.801 138.445 125.711C138.145 147.781 137.845 169.841 137.515 191.941H137.435C137.655 212.401 137.845 232.871 138.065 253.331V253.321Z" fill="#02DF82"/>
</svg>
