<svg width="92" height="92" viewBox="0 0 92 92" fill="none" xmlns="http://www.w3.org/2000/svg">
<g clip-path="url(#clip0_184_610)">
<path d="M91.55 19.14V72.43C91.56 72.73 91.55 73.04 91.53 73.34C91.51 73.63 91.49 73.92 91.46 74.21C91.43 74.51 91.39 74.82 91.35 75.12C90.06 84.41 82.08 91.56 72.42 91.56H19.13C18.8 91.56 18.43 91.55 18.03 91.53C17.74 91.51 17.46 91.49 17.17 91.46C16.87 91.43 16.57 91.39 16.27 91.35C15.74 91.27 15.18 91.16 14.6 91.02C14.43 90.98 14.14 90.91 13.77 90.79C13.51 90.72 13.22 90.62 12.89 90.51C12.59 90.4 12.25 90.27 11.9 90.12C11.66 90.03 11.42 89.93 11.19 89.81C10.9 89.68 10.59 89.53 10.28 89.36C10.06 89.25 9.84 89.13 9.62 89C9.42 88.89 9.21 88.77 9 88.63C8.7 88.45 8.41 88.26 8.13 88.06C8.04 88 7.95 87.94 7.86 87.87C7.64 87.71 7.41 87.55 7.19 87.37C6.99 87.21 6.79 87.04 6.59 86.87C6.54 86.83 6.5 86.79 6.45 86.75C6.23 86.56 6.02 86.36 5.8 86.15C5.63 85.98 5.46 85.81 5.3 85.64C5.14 85.47 4.98 85.3 4.83 85.13C4.5 84.76 4.2 84.38 3.91 84C1.51 80.86 0.07 76.97 0.01 72.72C0.01 72.53 0 72.37 0 72.25V19.14C0 8.57 8.56 0 19.13 0H72.42C82.99 0 91.55 8.57 91.55 19.14Z" fill="url(#paint0_linear_184_610)"/>
<path d="M91.56 72.2497C91.56 72.3097 91.56 72.3697 91.55 72.4297C91.56 72.7297 91.55 73.0397 91.53 73.3397C91.51 73.6297 91.49 73.9197 91.46 74.2097C91.43 74.5097 91.39 74.8197 91.35 75.1197C89.96 84.3297 82.02 91.3897 72.43 91.3897C54.66 91.4497 36.9 91.4997 19.13 91.5597C18.8 91.5597 18.43 91.5497 18.03 91.5297C17.74 91.5097 17.46 91.4897 17.17 91.4597C16.87 91.4297 16.57 91.3897 16.27 91.3497C15.74 91.2697 15.18 91.1597 14.6 91.0197C14.43 90.9797 14.14 90.9097 13.77 90.7897C13.51 90.7197 13.22 90.6197 12.89 90.5097C12.59 90.3997 12.25 90.2697 11.9 90.1197C11.66 90.0297 11.42 89.9297 11.19 89.8097C10.9 89.6797 10.59 89.5297 10.28 89.3597C10.06 89.2497 9.84 89.1297 9.62 88.9997C9.42 88.8897 9.21 88.7697 9 88.6297C8.7 88.4497 8.41 88.2597 8.13 88.0597C8.04 87.9997 7.95 87.9397 7.86 87.8697C7.64 87.7097 7.41 87.5497 7.19 87.3697C6.99 87.2097 6.79 87.0397 6.59 86.8697C6.54 86.8297 6.5 86.7897 6.45 86.7497C6.23 86.5597 6.02 86.3597 5.8 86.1497C5.63 85.9797 5.46 85.8097 5.3 85.6397C5.14 85.4697 4.98 85.2997 4.83 85.1297C4.5 84.7597 4.2 84.3797 3.91 83.9997C0.58 79.5397 0.1 74.5897 0.01 72.7197C0.01 72.5297 0 72.3697 0 72.2497V45.3997C4.76 46.0897 9.53 46.7797 14.29 47.4597C16.5 48.2397 19.96 49.3697 24.29 50.3297C32.58 52.1897 44.84 54.9397 56.78 51.0897C59.64 50.1697 62.42 48.8897 68.68 47.0697C72.49 45.9697 73.4 45.8897 76.72 44.7597C80.39 43.5097 81.68 42.7997 84.46 42.1597C84.89 42.0597 85.32 41.9697 85.73 41.8997C88.13 41.4497 90.15 41.3697 91.55 41.3797V45.9497C91.55 54.7197 91.56 63.4897 91.56 72.2497Z" fill="url(#paint1_linear_184_610)"/>
<path opacity="0.3" d="M91.55 41.23V42.61C90.49 42.91 88.96 43.37 87.16 44.03C84.91 44.86 83.28 45.61 81.52 46.43C77.11 48.48 74.9 49.51 73.8 50.05C66.72 53.53 55.16 59.2 41.94 59.07C40.07 59.05 36.92 59.02 32.92 58.13C31.08 57.72 29.44 57.22 22.16 54.37C15.59 51.8 15.53 51.67 13.3 50.86C10.21 49.74 5.73 48.33 0 47.26V45.66C1.97 45.93 3.94 46.22 5.91 46.64C14.75 48.6 23.53 51.78 32.3 53.72C48.68 57.13 65.5 51.27 80.15 43.9C81.9 43.04 83.79 42.35 85.73 41.89C87.64 41.43 89.61 41.18 91.55 41.22V41.23Z" fill="white"/>
<path d="M91.55 40.2299V41.4199C86.84 42.4299 82.22 44.0299 77.88 45.8999C64.29 52.8099 48.45 60.4399 32.6 55.8499L29.25 54.6699C19.82 50.6699 10.13 47.7299 0 45.8599V44.6999C10.53 44.3099 21.2 46.4399 31.12 49.9599L33.99 50.8099C46.39 53.6899 58.51 49.2799 70.34 44.7799C77 42.0799 84.29 40.1499 91.55 40.2299Z" fill="#FFDCAA"/>
<g filter="url(#filter0_d_184_610)">
<path d="M62.93 57.1699C61.74 54.9299 60.54 52.9799 59.35 51.2999C58.95 50.7399 58.55 50.2099 58.16 49.7099C56.54 47.7299 54.79 46.1199 52.93 44.8899C57.73 42.0699 61.53 38.1799 64.31 33.2199C65.39 31.2899 66.25 29.2599 66.91 27.1399C68.57 21.8099 64.39 16.4199 58.8 16.4199C58.8 19.6499 58.25 22.6799 57.14 25.5199C56.03 28.3599 54.5 30.8199 52.57 32.9399C50.64 35.0599 48.36 36.6899 45.72 37.8999C43.08 39.1099 40.28 39.6999 37.3 39.6999H35.53V16.4199C29.71 16.4199 25 21.1399 25 26.9499V75.2799C30.82 75.2799 35.53 70.5599 35.53 64.7499V49.3699H36.42C38.42 49.3699 40.17 49.5499 41.7 49.9399C43.22 50.3299 44.63 50.9899 45.95 51.9699C46.6 52.4399 47.24 52.9999 47.86 53.6299C48.5 54.2799 49.12 55.0199 49.73 55.8299C50.94 57.4199 52.16 59.4499 53.46 61.8399L55.01 64.6999C58.54 71.2199 65.36 75.2799 72.78 75.2799L62.95 57.1699H62.93Z" fill="white"/>
</g>
</g>
<defs>
<filter id="filter0_d_184_610" x="21" y="16.4199" width="55.78" height="66.8604" filterUnits="userSpaceOnUse" color-interpolation-filters="sRGB">
<feFlood flood-opacity="0" result="BackgroundImageFix"/>
<feColorMatrix in="SourceAlpha" type="matrix" values="0 0 0 0 0 0 0 0 0 0 0 0 0 0 0 0 0 0 127 0" result="hardAlpha"/>
<feOffset dy="4"/>
<feGaussianBlur stdDeviation="2"/>
<feComposite in2="hardAlpha" operator="out"/>
<feColorMatrix type="matrix" values="0 0 0 0 0.798077 0 0 0 0 0.445003 0 0 0 0 0.157313 0 0 0 0.5 0"/>
<feBlend mode="normal" in2="BackgroundImageFix" result="effect1_dropShadow_184_610"/>
<feBlend mode="normal" in="SourceGraphic" in2="effect1_dropShadow_184_610" result="shape"/>
</filter>
<linearGradient id="paint0_linear_184_610" x1="45.777" y1="0" x2="46" y2="59.5" gradientUnits="userSpaceOnUse">
<stop stop-color="#FA8C34"/>
<stop offset="1" stop-color="#F97518"/>
</linearGradient>
<linearGradient id="paint1_linear_184_610" x1="44.75" y1="52.7397" x2="51.46" y2="85.0997" gradientUnits="userSpaceOnUse">
<stop offset="0.13" stop-color="#FFAA0B"/>
<stop offset="1" stop-color="#FA9500"/>
</linearGradient>
<clipPath id="clip0_184_610">
<rect width="91.56" height="91.56" fill="white"/>
</clipPath>
</defs>
</svg>
