<svg width="645" height="645" viewBox="0 0 645 645" fill="none" xmlns="http://www.w3.org/2000/svg">
<path d="M510.622 0C550.055 6.60051e-06 585.97 17.0551 610.212 44.6641C631.507 68.3708 644.533 99.7831 644.533 133.911C644.533 144.58 643.211 155.008 640.539 165.15C637.488 178.531 632.145 191.534 625.101 202.965C612.189 224.673 593.044 242.547 570.001 253.809C580.683 284.334 586.578 317.239 586.578 351.244C586.578 513.318 455.363 644.533 293.289 644.533C131.215 644.533 8.54474e-05 513.319 0 351.244C0.000115303 189.17 131.215 57.9551 293.289 57.9551C327.281 57.9551 360.022 63.6395 390.562 74.2979C396.756 61.8045 404.87 50.431 414.557 40.5088C438.988 15.4081 473.152 3.34686e-05 510.622 0ZM292.13 469.789C216.735 469.789 161.84 517.901 159.797 571.284C198.705 594.924 244.395 608.533 293.289 608.533C341.232 608.533 386.094 595.447 424.504 572.65C423.349 518.98 368.134 469.789 292.13 469.789ZM293.289 93.9551C151.097 93.9551 36.0001 209.052 36 351.244C36 429.891 71.2115 500.247 126.742 547.426C141.956 480.485 212.893 433.789 292.13 433.789C372.014 433.789 443.421 481.469 457.866 549.082C514.533 501.903 550.578 430.817 550.578 351.244C550.578 321.284 545.363 292.281 535.91 265.381C535.887 265.385 535.863 265.389 535.84 265.394C535.368 265.487 534.896 265.578 534.423 265.666C534.362 265.677 534.3 265.689 534.239 265.7C533.802 265.781 533.364 265.859 532.926 265.935C532.839 265.95 532.751 265.965 532.664 265.979C532.287 266.044 531.909 266.107 531.53 266.168C531.378 266.193 531.226 266.218 531.073 266.242C530.64 266.311 530.206 266.376 529.771 266.44C529.741 266.445 529.71 266.45 529.68 266.454C528.657 266.604 527.631 266.741 526.603 266.866C526.547 266.873 526.491 266.88 526.436 266.887C526.002 266.939 525.568 266.987 525.133 267.035C524.996 267.05 524.859 267.065 524.723 267.079C524.368 267.117 524.014 267.154 523.659 267.188C523.511 267.203 523.364 267.217 523.216 267.231C522.826 267.268 522.435 267.303 522.044 267.337C521.935 267.346 521.827 267.356 521.718 267.365C521.233 267.405 520.748 267.443 520.263 267.478C520.252 267.478 520.241 267.48 520.23 267.48C519.712 267.518 519.193 267.551 518.674 267.582C518.623 267.585 518.572 267.588 518.521 267.591C518.041 267.619 517.561 267.645 517.081 267.668C517.039 267.67 516.998 267.671 516.956 267.673C516.499 267.694 516.041 267.714 515.582 267.73C515.485 267.734 515.389 267.737 515.292 267.74C514.895 267.754 514.498 267.766 514.101 267.776C513.946 267.78 513.792 267.784 513.638 267.787C513.276 267.795 512.915 267.802 512.553 267.807C512.418 267.809 512.283 267.811 512.148 267.812C511.64 267.818 511.131 267.822 510.622 267.822C509.071 267.822 507.526 267.794 505.988 267.741C505.831 267.736 505.674 267.73 505.517 267.724C502.951 267.627 500.405 267.459 497.881 267.22C497.117 267.147 496.356 267.067 495.597 266.981C490.106 266.365 484.72 265.416 479.461 264.151C479.183 264.085 478.906 264.015 478.629 263.946C477.548 263.679 476.472 263.399 475.402 263.105C474.904 262.969 474.408 262.829 473.912 262.687C473.779 262.648 473.646 262.612 473.513 262.573C473.371 262.532 473.23 262.489 473.088 262.447C472.254 262.202 471.424 261.95 470.598 261.688C470.482 261.652 470.367 261.614 470.251 261.577C469.394 261.304 468.54 261.023 467.69 260.732C467.523 260.675 467.356 260.616 467.189 260.559C465.448 259.955 463.723 259.319 462.016 258.646C461.749 258.541 461.484 258.433 461.219 258.326C460.777 258.149 460.336 257.968 459.896 257.786C449.063 253.295 438.967 247.405 429.824 240.343C429.735 240.274 429.646 240.206 429.557 240.137C429.281 239.923 429.006 239.707 428.732 239.49C428.618 239.4 428.503 239.31 428.389 239.22C426.066 237.374 423.807 235.452 421.615 233.457C411.588 224.741 402.865 214.355 396.096 202.888C395.712 202.263 395.333 201.635 394.959 201.003C394.661 200.499 394.368 199.993 394.077 199.485C393.865 199.116 393.655 198.745 393.446 198.373C391.864 195.548 390.385 192.659 389.012 189.712C388.669 188.976 388.332 188.237 388.003 187.494C387.49 186.338 386.994 185.172 386.514 183.999C386.296 183.466 386.082 182.932 385.871 182.396C385.692 181.942 385.516 181.487 385.342 181.03C384.75 179.475 384.187 177.906 383.653 176.324C383.259 175.155 382.879 173.98 382.517 172.797C382.397 172.405 382.279 172.013 382.162 171.62C381.294 168.69 380.525 165.721 379.858 162.716C379.756 162.256 379.656 161.795 379.559 161.333C379.487 160.992 379.416 160.651 379.347 160.309C379.222 159.692 379.103 159.073 378.986 158.453C378.771 157.305 378.57 156.152 378.385 154.995C378.333 154.675 378.284 154.354 378.235 154.033C378.116 153.25 378.003 152.465 377.897 151.678C377.81 151.029 377.728 150.379 377.65 149.728C377.03 144.528 376.711 139.248 376.711 133.91C376.711 133.909 376.711 133.907 376.711 133.905C376.711 133.374 376.715 132.843 376.721 132.313C376.724 132.069 376.728 131.826 376.732 131.582C376.736 131.349 376.74 131.117 376.745 130.885C376.75 130.668 376.755 130.452 376.761 130.236C376.769 129.912 376.78 129.588 376.791 129.265C376.797 129.096 376.802 128.927 376.809 128.759C376.82 128.46 376.832 128.161 376.845 127.862C376.854 127.652 376.863 127.442 376.873 127.231C376.887 126.953 376.903 126.674 376.918 126.396C376.945 125.904 376.976 125.414 377.008 124.925C377.023 124.7 377.036 124.475 377.052 124.251C377.069 124.01 377.088 123.769 377.106 123.528C377.125 123.284 377.142 123.04 377.162 122.796C377.181 122.559 377.203 122.322 377.224 122.085C377.248 121.806 377.273 121.528 377.299 121.25C377.317 121.059 377.334 120.867 377.353 120.676C377.377 120.42 377.404 120.165 377.431 119.909C377.457 119.65 377.484 119.391 377.512 119.133C377.549 118.787 377.59 118.442 377.63 118.097C377.643 117.983 377.655 117.869 377.669 117.755C377.726 117.274 377.786 116.794 377.849 116.315C377.889 116.009 377.932 115.703 377.974 115.397C377.999 115.214 378.023 115.031 378.049 114.848C378.084 114.598 378.121 114.349 378.158 114.1C378.19 113.884 378.221 113.668 378.254 113.453C378.293 113.194 378.334 112.935 378.375 112.677C378.422 112.381 378.47 112.085 378.519 111.79C378.549 111.605 378.58 111.42 378.611 111.235C378.673 110.871 378.736 110.507 378.801 110.144C378.819 110.042 378.836 109.94 378.854 109.838C378.935 109.389 379.019 108.941 379.104 108.493C379.108 108.473 379.111 108.453 379.115 108.433C352.263 99.0088 323.39 93.9551 293.289 93.9551ZM292.131 206.028C347.043 206.029 391.559 250.544 391.559 305.456C391.558 360.368 347.043 404.883 292.131 404.883C237.219 404.883 192.703 360.368 192.703 305.456C192.703 250.544 237.219 206.028 292.131 206.028ZM292.131 242.028C257.101 242.028 228.703 270.426 228.703 305.456C228.703 340.486 257.101 368.883 292.131 368.883C327.161 368.883 355.558 340.486 355.559 305.456C355.559 270.426 327.161 242.029 292.131 242.028ZM510.622 36C483.182 36 458.231 47.2523 440.354 65.6182C440.347 65.6255 440.34 65.6333 440.333 65.6406C430.044 76.1744 422.242 88.8702 417.612 103.002C416.552 106.27 415.656 109.588 414.931 112.958C414.888 113.157 414.845 113.356 414.804 113.556C414.266 116.133 413.828 118.74 413.495 121.379C413.412 122.034 413.336 122.691 413.267 123.35C413.124 124.695 413.009 126.048 412.921 127.409C412.881 128.026 412.847 128.644 412.818 129.265C412.765 130.419 412.731 131.579 412.718 132.745C412.713 133.133 412.711 133.521 412.711 133.91C412.711 134.395 412.716 134.878 412.723 135.361C412.732 136.009 412.746 136.655 412.769 137.3C413.301 152.717 417.457 167.309 424.453 180.058C424.923 180.915 425.408 181.763 425.903 182.603C425.939 182.662 425.972 182.723 426.008 182.782L426.84 184.157L426.931 184.309C426.965 184.365 427 184.422 427.033 184.479C427.376 185.062 427.728 185.641 428.086 186.218C428.195 186.394 428.305 186.57 428.416 186.746C429.097 187.824 429.804 188.888 430.536 189.939C433.972 194.874 437.956 199.502 442.366 203.683C442.694 203.994 443.025 204.303 443.357 204.609C444.006 205.206 444.664 205.794 445.33 206.371C445.45 206.475 445.57 206.582 445.688 206.689C445.798 206.791 445.91 206.891 446.021 206.992C447.499 208.33 449.017 209.623 450.574 210.868C453.249 213.007 456.041 215.003 458.938 216.85C459.314 217.089 459.692 217.327 460.071 217.562C473.135 225.634 488.285 230.654 504.646 231.642C504.706 231.645 504.765 231.649 504.824 231.652C505.955 231.719 507.092 231.765 508.234 231.792C508.252 231.792 508.27 231.794 508.288 231.794C509.064 231.812 509.842 231.821 510.622 231.821C521.452 231.821 531.552 230.1 540.763 226.794C540.976 226.718 541.189 226.646 541.403 226.578L541.433 226.569C563.724 219.543 582.515 204.217 594.241 184.429L594.412 184.146C599.448 175.993 603.325 166.553 605.495 156.909L605.663 156.223C607.566 149.088 608.533 141.666 608.533 133.911C608.533 109.008 599.02 86.0142 583.316 68.5928C583.264 68.5347 583.212 68.4758 583.16 68.417C565.674 48.5027 539.577 36 510.622 36ZM510.622 73.0244C520.563 73.0244 528.622 81.0833 528.622 91.0244V115.331H553.799C563.74 115.331 571.799 123.39 571.799 133.331C571.799 143.272 563.74 151.331 553.799 151.331H528.622V177.668C528.622 187.609 520.563 195.668 510.622 195.668C500.681 195.668 492.622 187.609 492.622 177.668V151.331H467.445C457.504 151.331 449.445 143.272 449.445 133.331C449.445 123.39 457.504 115.331 467.445 115.331H492.622V91.0244C492.622 81.0833 500.681 73.0245 510.622 73.0244Z" fill="#171717"/>
</svg>
