<svg width="653" height="652" viewBox="0 0 653 652" fill="none" xmlns="http://www.w3.org/2000/svg">
<path d="M537.559 0.00585938C543.57 0.124117 549.42 1.97452 554.406 5.33398L554.902 5.6748L555.39 6.02539C560.135 9.49466 563.801 14.2305 565.974 19.6855L624.482 146.784L624.735 147.36C625.304 148.713 625.712 150.129 625.951 151.578C628.756 168.609 627.814 186.046 623.192 202.676C618.57 219.305 610.378 234.728 599.187 247.868C594.205 253.719 588.679 259.053 582.7 263.809V392.866C624.241 416.839 652.2 461.717 652.2 513.125C652.2 589.754 590.079 651.875 513.45 651.875C484.124 651.875 456.924 642.777 434.516 627.25H101.466C86.9538 627.521 72.9105 622.084 62.364 612.1C51.7409 602.043 45.5287 588.192 45.0837 573.57L45.0749 573.285V263.984C41.4037 261.346 37.9865 258.524 34.8142 255.539C19.9957 241.597 11.4165 225.012 6.50949 209.64C1.6223 194.329 0.239589 179.816 0.0299988 169.271C-0.0756462 163.956 0.114233 159.53 0.340546 156.362C0.453914 154.775 0.57746 153.495 0.678436 152.566C0.728955 152.102 0.773511 151.724 0.809296 151.439C0.827166 151.297 0.843412 151.178 0.856171 151.083C0.862555 151.035 0.867848 150.993 0.872772 150.957C0.875212 150.939 0.87755 150.923 0.879608 150.908C0.880605 150.901 0.881982 150.892 0.882538 150.888C0.8839 150.878 0.897992 150.87 19.4499 153.5L0.885468 150.868C1.1395 149.076 1.6517 147.331 2.40598 145.686L60.1667 19.7061C62.4127 14.0563 66.2604 9.17665 71.2478 5.6748C76.5038 1.9844 82.7698 0.00273247 89.1921 0H536.958L537.559 0.00585938ZM513.45 411.875C457.531 411.875 412.2 457.206 412.2 513.125C412.2 569.044 457.531 614.375 513.45 614.375C569.369 614.375 614.7 569.044 614.7 513.125C614.7 457.206 569.369 411.875 513.45 411.875ZM313.728 265.504C306.643 271.105 298.886 275.843 290.617 279.594C276.444 286.022 261.084 289.416 245.522 289.558C229.96 289.699 214.541 286.585 200.254 280.415C191.48 276.626 183.252 271.735 175.761 265.879C166.979 272.092 157.291 276.983 147.005 280.355C130.988 285.607 113.966 287.041 97.2966 284.543C97.2098 284.53 97.1225 284.516 97.0359 284.502C91.987 283.673 87.1692 282.631 82.5749 281.392V572.639C82.7706 577.281 84.7658 581.669 88.1443 584.867C91.5733 588.113 96.1476 589.871 100.868 589.756L101.096 589.75H127.7V403C127.7 388.226 139.676 376.25 154.45 376.25H299.45C314.223 376.25 326.2 388.226 326.2 403V589.75H397.761C383.19 567.794 374.7 541.451 374.7 513.125C374.7 436.495 436.82 374.375 513.45 374.375C524.374 374.375 535.003 375.638 545.2 378.025V283.899C533.335 287.723 520.913 289.666 508.388 289.625C508.195 289.624 508.001 289.621 507.807 289.614C494.278 289.15 480.975 286.001 468.674 280.35C461.25 276.939 454.282 272.658 447.908 267.61C426.539 280.039 402.601 287.569 377.831 289.564C376.872 289.642 375.909 289.645 374.95 289.574C352.428 287.918 331.114 279.442 313.728 265.504ZM165.2 589.75H288.7V413.75H165.2V589.75ZM542.656 462.153C548.646 453.707 560.35 451.716 568.797 457.706C577.243 463.697 579.234 475.4 573.244 483.847L516.508 563.847C513.572 567.985 509.085 570.758 504.07 571.531C499.055 572.304 493.941 571.011 489.895 567.948L457.631 543.518C449.375 537.266 447.751 525.506 454.002 517.251C460.253 508.995 472.014 507.37 480.269 513.621L497.11 526.373L542.656 462.153ZM37.6589 172.25C38.0528 179.789 39.2699 188.949 42.2341 198.235C45.6865 209.051 51.3644 219.622 60.5105 228.227C69.5109 236.694 82.7875 244.133 102.965 247.473C113.817 249.081 124.896 248.14 135.322 244.722C145.784 241.292 155.299 235.463 163.107 227.702L163.449 227.37C167.024 223.993 171.789 222.15 176.718 222.254C181.807 222.361 186.634 224.532 190.09 228.269C197.107 235.855 205.632 241.891 215.12 245.988C224.607 250.085 234.848 252.153 245.181 252.059C255.515 251.965 265.715 249.711 275.127 245.442C284.538 241.174 292.953 234.983 299.831 227.271L300.171 226.9C303.727 223.121 308.697 220.979 313.901 221C319.273 221.022 324.377 223.347 327.92 227.386C340.307 241.506 357.625 250.323 376.293 252.057C398.901 249.973 420.563 241.931 439.061 228.735C446.76 223.243 457.344 224.345 463.748 231.305C469.548 237.609 476.544 242.697 484.329 246.273C492.024 249.809 500.339 251.795 508.8 252.123C520.511 252.12 532.084 249.587 542.726 244.693C553.456 239.759 562.981 232.546 570.637 223.555C578.294 214.564 583.899 204.012 587.061 192.634C588.913 185.973 589.899 179.123 590.015 172.25H37.6589ZM48.6736 134.75H158.2V37.5H93.2624L48.6736 134.75ZM195.7 134.75H295.7V37.5H195.7V134.75ZM333.2 134.75H432.825V37.5H333.2V134.75ZM470.325 134.75H577.659L532.891 37.5H470.325V134.75Z" fill="black"/>
</svg>
